<svg id="visual" viewBox="0 0 900 600" width="900" height="600" xmlns="http://www.w3.org/2000/svg" xmlns:xlink="http://www.w3.org/1999/xlink" version="1.1"><rect width="900" height="600" fill="#001829"></rect><g><g transform="translate(619 185)"><path d="M0 -147L63.8 -132.4L114.9 -91.7L143.3 -32.7L143.3 32.7L114.9 91.7L63.8 132.4L0 147L-63.8 132.4L-114.9 91.7L-143.3 32.7L-143.3 -32.7L-114.9 -91.7L-63.8 -132.4Z" fill="#297EA6"></path></g><g transform="translate(867 16)"><path d="M0 -35L15.2 -31.5L27.4 -21.8L34.1 -7.8L34.1 7.8L27.4 21.8L15.2 31.5L0 35L-15.2 31.5L-27.4 21.8L-34.1 7.8L-34.1 -7.8L-27.4 -21.8L-15.2 -31.5Z" fill="#297EA6"></path></g><g transform="translate(895 402)"><path d="M0 -65L28.2 -58.6L50.8 -40.5L63.4 -14.5L63.4 14.5L50.8 40.5L28.2 58.6L0 65L-28.2 58.6L-50.8 40.5L-63.4 14.5L-63.4 -14.5L-50.8 -40.5L-28.2 -58.6Z" fill="#297EA6"></path></g><g transform="translate(370 345)"><path d="M0 -22L9.5 -19.8L17.2 -13.7L21.4 -4.9L21.4 4.9L17.2 13.7L9.5 19.8L0 22L-9.5 19.8L-17.2 13.7L-21.4 4.9L-21.4 -4.9L-17.2 -13.7L-9.5 -19.8Z" fill="#297EA6"></path></g><g transform="translate(85 212)"><path d="M0 -80L34.7 -72.1L62.5 -49.9L78 -17.8L78 17.8L62.5 49.9L34.7 72.1L0 80L-34.7 72.1L-62.5 49.9L-78 17.8L-78 -17.8L-62.5 -49.9L-34.7 -72.1Z" fill="#297EA6"></path></g><g transform="translate(49 517)"><path d="M0 -25L10.8 -22.5L19.5 -15.6L24.4 -5.6L24.4 5.6L19.5 15.6L10.8 22.5L0 25L-10.8 22.5L-19.5 15.6L-24.4 5.6L-24.4 -5.6L-19.5 -15.6L-10.8 -22.5Z" fill="#297EA6"></path></g><g transform="translate(314 19)"><path d="M0 -76L33 -68.5L59.4 -47.4L74.1 -16.9L74.1 16.9L59.4 47.4L33 68.5L0 76L-33 68.5L-59.4 47.4L-74.1 16.9L-74.1 -16.9L-59.4 -47.4L-33 -68.5Z" fill="#297EA6"></path></g><g transform="translate(546 588)"><path d="M0 -95L41.2 -85.6L74.3 -59.2L92.6 -21.1L92.6 21.1L74.3 59.2L41.2 85.6L0 95L-41.2 85.6L-74.3 59.2L-92.6 21.1L-92.6 -21.1L-74.3 -59.2L-41.2 -85.6Z" fill="#297EA6"></path></g></g></svg>